<?xml version="1.0" encoding="UTF-8"?>
<!DOCTYPE svg PUBLIC "-//W3C//DTD SVG 1.1//EN" "http://www.w3.org/Graphics/SVG/1.1/DTD/svg11.dtd">
<svg xmlns="http://www.w3.org/2000/svg" version="1.1" width="500px" height="500px" style="shape-rendering:geometricPrecision; text-rendering:geometricPrecision; image-rendering:optimizeQuality; fill-rule:evenodd; clip-rule:evenodd" xmlns:xlink="http://www.w3.org/1999/xlink">
<g><path style="opacity:1" fill="#3ab6fe" d="M 408.5,308.5 C 407.596,309.209 407.263,310.209 407.5,311.5C 402.399,311.761 397.399,311.761 392.5,311.5C 381.39,294.408 365.557,286.408 345,287.5C 338.504,287.466 332.17,288.466 326,290.5C 324.989,289.944 324.156,289.278 323.5,288.5C 321.997,282.845 320.83,277.178 320,271.5C 325.92,259.246 334.92,249.912 347,243.5C 350.747,236.337 354.747,229.337 359,222.5C 359.497,220.19 359.663,217.857 359.5,215.5C 351.874,216.992 344.208,218.159 336.5,219C 334.926,217.174 334.093,215.007 334,212.5C 330.8,210.235 327.467,208.235 324,206.5C 323.529,204.754 322.862,203.087 322,201.5C 317.899,198.965 315.565,195.299 315,190.5C 310.734,181.197 306.567,171.864 302.5,162.5C 305.003,160.16 306.669,157.327 307.5,154C 307.561,152.289 306.894,150.956 305.5,150C 301.627,149.73 297.794,149.23 294,148.5C 292.216,149.309 290.383,149.976 288.5,150.5C 283.827,149.713 279.16,148.88 274.5,148C 270.574,144.018 265.907,142.852 260.5,144.5C 259.102,146.13 258.102,147.964 257.5,150C 254.833,150.667 252.167,150.667 249.5,150C 246.374,146.197 242.374,144.197 237.5,144C 234.6,142.258 231.6,140.758 228.5,139.5C 230.748,136.38 230.914,133.047 229,129.5C 227.13,128.257 224.964,127.59 222.5,127.5C 213.642,127.949 204.975,129.116 196.5,131C 193.853,132.299 191.186,133.632 188.5,135C 184.556,135.99 180.889,135.49 177.5,133.5C 175.96,135.387 174.293,137.22 172.5,139C 165.242,141.353 162.575,146.186 164.5,153.5C 163.448,153.351 162.448,153.517 161.5,154C 158.59,157.416 155.257,160.25 151.5,162.5C 142.597,147.885 130.263,143.218 114.5,148.5C 145.718,107.216 187.384,84.7158 239.5,81C 305.253,79.2903 356.419,105.457 393,159.5C 420.948,206.759 426.115,256.425 408.5,308.5 Z"/></g>
<g><path style="opacity:1" fill="#89a15b" d="M 318.5,292.5 C 309.882,297.785 302.882,304.785 297.5,313.5C 281.872,302.042 267.038,303.042 253,316.5C 250.26,320.647 248.093,324.98 246.5,329.5C 244.956,322.534 242.623,315.867 239.5,309.5C 240.244,306.557 240.744,303.557 241,300.5C 243.926,298.445 245.093,295.612 244.5,292C 244.089,283.022 241.923,274.522 238,266.5C 235.961,264.126 233.628,262.126 231,260.5C 230.023,258.26 229.523,255.927 229.5,253.5C 243.395,252.634 255.229,247.3 265,237.5C 267.004,234.157 269.004,230.824 271,227.5C 271.818,221.651 271.652,215.985 270.5,210.5C 266.38,200.215 259.046,193.048 248.5,189C 237.683,185.543 226.683,184.71 215.5,186.5C 206.924,170.038 193.257,162.038 174.5,162.5C 169.814,162.686 165.147,163.019 160.5,163.5C 163.769,161.074 166.935,158.407 170,155.5C 171.659,152.57 171.992,149.57 171,146.5C 176.667,142.132 183.167,140.299 190.5,141C 193.371,139.065 196.371,137.399 199.5,136C 207.492,135.016 215.492,134.183 223.5,133.5C 221.536,137.889 222.203,141.722 225.5,145C 229.81,146.488 233.81,148.488 237.5,151C 239.5,151.333 241.5,151.667 243.5,152C 251.92,160.107 259.087,159.273 265,149.5C 268.133,149.913 270.633,151.413 272.5,154C 277.918,154.292 283.252,155.125 288.5,156.5C 292.007,154.914 295.341,155.248 298.5,157.5C 296.066,160.982 295.899,164.649 298,168.5C 303.535,177.968 307.869,187.968 311,198.5C 313.79,201.605 316.123,204.938 318,208.5C 320.832,212.004 324.332,214.671 328.5,216.5C 330.066,222.066 333.733,225.066 339.5,225.5C 342.846,224.83 346.179,224.163 349.5,223.5C 347.851,232.845 342.851,239.512 334.5,243.5C 330.515,247.985 326.349,252.318 322,256.5C 319.301,261.187 316.634,265.853 314,270.5C 314.911,277.887 316.411,285.221 318.5,292.5 Z"/></g>
<g><path style="opacity:1" fill="#dadcdc" d="M 151.5,162.5 C 151.66,164.153 152.326,165.486 153.5,166.5C 156.018,165.736 158.351,164.736 160.5,163.5C 165.147,163.019 169.814,162.686 174.5,162.5C 193.257,162.038 206.924,170.038 215.5,186.5C 226.683,184.71 237.683,185.543 248.5,189C 259.046,193.048 266.38,200.215 270.5,210.5C 251.873,193.046 230.873,189.712 207.5,200.5C 206.479,199.998 206.312,199.332 207,198.5C 209.479,195.931 212.146,193.598 215,191.5C 212.373,185.196 207.873,180.362 201.5,177C 182.924,168.646 165.257,170.146 148.5,181.5C 148.167,181.167 147.833,180.833 147.5,180.5C 149.721,178.627 151.054,176.293 151.5,173.5C 146.922,162.11 138.422,155.777 126,154.5C 113.223,155.134 104.723,161.468 100.5,173.5C 101.559,176.068 103.226,178.235 105.5,180C 100.541,178.909 95.5412,177.576 90.5,176C 71.7321,172.471 57.8988,178.971 49,195.5C 48.5065,197.134 48.3398,198.801 48.5,200.5C 33.405,200.22 20.405,205.22 9.5,215.5C 12.4382,207.386 17.7715,201.219 25.5,197C 33.222,193.736 41.222,191.403 49.5,190C 59.1977,168.867 75.3643,161.367 98,167.5C 102.251,160.082 107.751,153.749 114.5,148.5C 130.263,143.218 142.597,147.885 151.5,162.5 Z"/></g>
<g><path style="opacity:1" fill="#768750" d="M 320.5,291.5 C 320.158,292.338 319.492,292.672 318.5,292.5C 316.411,285.221 314.911,277.887 314,270.5C 316.634,265.853 319.301,261.187 322,256.5C 326.349,252.318 330.515,247.985 334.5,243.5C 342.851,239.512 347.851,232.845 349.5,223.5C 346.179,224.163 342.846,224.83 339.5,225.5C 333.733,225.066 330.066,222.066 328.5,216.5C 324.332,214.671 320.832,212.004 318,208.5C 316.123,204.938 313.79,201.605 311,198.5C 307.869,187.968 303.535,177.968 298,168.5C 295.899,164.649 296.066,160.982 298.5,157.5C 295.341,155.248 292.007,154.914 288.5,156.5C 283.252,155.125 277.918,154.292 272.5,154C 270.633,151.413 268.133,149.913 265,149.5C 259.087,159.273 251.92,160.107 243.5,152C 241.5,151.667 239.5,151.333 237.5,151C 233.81,148.488 229.81,146.488 225.5,145C 222.203,141.722 221.536,137.889 223.5,133.5C 215.492,134.183 207.492,135.016 199.5,136C 196.371,137.399 193.371,139.065 190.5,141C 183.167,140.299 176.667,142.132 171,146.5C 171.992,149.57 171.659,152.57 170,155.5C 166.935,158.407 163.769,161.074 160.5,163.5C 158.351,164.736 156.018,165.736 153.5,166.5C 154.53,163.808 156.53,162.308 159.5,162C 162.052,159.147 164.885,156.647 168,154.5C 168.179,151.447 168.679,148.447 169.5,145.5C 171.594,143.404 173.927,141.571 176.5,140C 180.833,139.667 185.167,139.333 189.5,139C 192.371,137.065 195.371,135.399 198.5,134C 207.504,132.785 216.504,131.618 225.5,130.5C 225.519,132.06 225.852,133.56 226.5,135C 224.818,136.895 224.318,139.062 225,141.5C 230.453,144.979 236.287,147.479 242.5,149C 244.792,150.29 246.792,151.957 248.5,154C 251.833,154.667 255.167,154.667 258.5,154C 260.487,152.681 261.654,150.848 262,148.5C 266.503,147.253 270.336,148.42 273.5,152C 278.551,152.059 283.384,152.892 288,154.5C 292.795,153.642 297.628,153.309 302.5,153.5C 302.872,156.022 302.039,158.022 300,159.5C 299.333,162.167 299.333,164.833 300,167.5C 305.309,177.099 309.642,187.099 313,197.5C 316.053,200.887 318.72,204.553 321,208.5C 324.147,210.665 327.314,212.832 330.5,215C 330.958,217.831 332.292,220.164 334.5,222C 341.242,222.963 347.742,222.13 354,219.5C 354.5,219.833 355,220.167 355.5,220.5C 351.572,227.12 347.739,233.787 344,240.5C 331.892,247.274 322.892,256.941 317,269.5C 316.878,277.018 318.044,284.351 320.5,291.5 Z"/></g>
<g><path style="opacity:1" fill="#e2f1fe" d="M 270.5,210.5 C 269.791,219.41 265.791,226.577 258.5,232C 243.067,240.839 227.067,241.839 210.5,235C 206.324,232.412 202.324,229.579 198.5,226.5C 198.167,226.667 197.833,226.833 197.5,227C 200.641,231.641 203.974,236.141 207.5,240.5C 199.987,252.973 188.821,258.973 174,258.5C 162.645,257.674 153.479,252.674 146.5,243.5C 154.932,241.235 161.932,236.735 167.5,230C 163.474,230.897 159.474,232.231 155.5,234C 142.506,237.614 129.84,236.947 117.5,232C 121.559,237.114 126.726,240.614 133,242.5C 134.257,242.85 134.591,243.517 134,244.5C 115.28,260.368 94.7801,262.868 72.5,252C 69.0607,249.861 65.894,247.361 63,244.5C 62.3123,243.668 62.479,243.002 63.5,242.5C 68.1025,239.697 72.1025,236.197 75.5,232C 69.3575,234.217 63.0242,236.217 56.5,238C 39.7351,240.523 25.5685,235.69 14,223.5C 10.0188,214.128 8.51882,214.795 9.5,225.5C 8.16667,222.167 8.16667,218.833 9.5,215.5C 20.405,205.22 33.405,200.22 48.5,200.5C 48.3398,198.801 48.5065,197.134 49,195.5C 57.8988,178.971 71.7321,172.471 90.5,176C 95.5412,177.576 100.541,178.909 105.5,180C 103.226,178.235 101.559,176.068 100.5,173.5C 104.723,161.468 113.223,155.134 126,154.5C 138.422,155.777 146.922,162.11 151.5,173.5C 151.054,176.293 149.721,178.627 147.5,180.5C 147.833,180.833 148.167,181.167 148.5,181.5C 165.257,170.146 182.924,168.646 201.5,177C 207.873,180.362 212.373,185.196 215,191.5C 212.146,193.598 209.479,195.931 207,198.5C 206.312,199.332 206.479,199.998 207.5,200.5C 230.873,189.712 251.873,193.046 270.5,210.5 Z"/></g>
<g><path style="opacity:1" fill="#d9dadb" d="M 101.5,194.5 C 114.474,192.635 125.474,196.469 134.5,206C 129.526,204.903 124.526,203.57 119.5,202C 107.334,200.044 96.0009,202.21 85.5,208.5C 84.479,207.998 84.3123,207.332 85,206.5C 89.8421,201.476 95.3421,197.476 101.5,194.5 Z"/></g>
<g><path style="opacity:1" fill="#dbc99d" d="M 323.5,288.5 C 323.5,290.5 322.5,291.5 320.5,291.5C 318.044,284.351 316.878,277.018 317,269.5C 322.892,256.941 331.892,247.274 344,240.5C 347.739,233.787 351.572,227.12 355.5,220.5C 355,220.167 354.5,219.833 354,219.5C 347.742,222.13 341.242,222.963 334.5,222C 332.292,220.164 330.958,217.831 330.5,215C 327.314,212.832 324.147,210.665 321,208.5C 318.72,204.553 316.053,200.887 313,197.5C 309.642,187.099 305.309,177.099 300,167.5C 299.333,164.833 299.333,162.167 300,159.5C 302.039,158.022 302.872,156.022 302.5,153.5C 297.628,153.309 292.795,153.642 288,154.5C 283.384,152.892 278.551,152.059 273.5,152C 270.336,148.42 266.503,147.253 262,148.5C 261.654,150.848 260.487,152.681 258.5,154C 255.167,154.667 251.833,154.667 248.5,154C 246.792,151.957 244.792,150.29 242.5,149C 236.287,147.479 230.453,144.979 225,141.5C 224.318,139.062 224.818,136.895 226.5,135C 225.852,133.56 225.519,132.06 225.5,130.5C 216.504,131.618 207.504,132.785 198.5,134C 195.371,135.399 192.371,137.065 189.5,139C 185.167,139.333 180.833,139.667 176.5,140C 173.927,141.571 171.594,143.404 169.5,145.5C 168.679,148.447 168.179,151.447 168,154.5C 164.885,156.647 162.052,159.147 159.5,162C 156.53,162.308 154.53,163.808 153.5,166.5C 152.326,165.486 151.66,164.153 151.5,162.5C 155.257,160.25 158.59,157.416 161.5,154C 162.448,153.517 163.448,153.351 164.5,153.5C 162.575,146.186 165.242,141.353 172.5,139C 174.293,137.22 175.96,135.387 177.5,133.5C 180.889,135.49 184.556,135.99 188.5,135C 191.186,133.632 193.853,132.299 196.5,131C 204.975,129.116 213.642,127.949 222.5,127.5C 224.964,127.59 227.13,128.257 229,129.5C 230.914,133.047 230.748,136.38 228.5,139.5C 231.6,140.758 234.6,142.258 237.5,144C 242.374,144.197 246.374,146.197 249.5,150C 252.167,150.667 254.833,150.667 257.5,150C 258.102,147.964 259.102,146.13 260.5,144.5C 265.907,142.852 270.574,144.018 274.5,148C 279.16,148.88 283.827,149.713 288.5,150.5C 290.383,149.976 292.216,149.309 294,148.5C 297.794,149.23 301.627,149.73 305.5,150C 306.894,150.956 307.561,152.289 307.5,154C 306.669,157.327 305.003,160.16 302.5,162.5C 306.567,171.864 310.734,181.197 315,190.5C 315.565,195.299 317.899,198.965 322,201.5C 322.862,203.087 323.529,204.754 324,206.5C 327.467,208.235 330.8,210.235 334,212.5C 334.093,215.007 334.926,217.174 336.5,219C 344.208,218.159 351.874,216.992 359.5,215.5C 359.663,217.857 359.497,220.19 359,222.5C 354.747,229.337 350.747,236.337 347,243.5C 334.92,249.912 325.92,259.246 320,271.5C 320.83,277.178 321.997,282.845 323.5,288.5 Z"/></g>
<g><path style="opacity:1" fill="#b6d5f0" d="M 270.5,210.5 C 271.652,215.985 271.818,221.651 271,227.5C 269.004,230.824 267.004,234.157 265,237.5C 255.229,247.3 243.395,252.634 229.5,253.5C 228.833,253.5 228.167,253.5 227.5,253.5C 225.708,253.366 224.042,253.699 222.5,254.5C 218.397,252.854 214.064,251.521 209.5,250.5C 201.29,264.447 188.957,271.447 172.5,271.5C 160.607,270.928 150.107,266.928 141,259.5C 122.89,271.101 103.39,274.101 82.5,268.5C 82.5,269.5 82.5,270.5 82.5,271.5C 81.7656,270.122 81.0989,268.622 80.5,267C 71.4599,263.952 64.1266,258.619 58.5,251C 44.8414,251.937 32.1747,248.937 20.5,242C 14.5851,237.933 10.9184,232.433 9.5,225.5C 8.51882,214.795 10.0188,214.128 14,223.5C 25.5685,235.69 39.7351,240.523 56.5,238C 63.0242,236.217 69.3575,234.217 75.5,232C 72.1025,236.197 68.1025,239.697 63.5,242.5C 62.479,243.002 62.3123,243.668 63,244.5C 65.894,247.361 69.0607,249.861 72.5,252C 94.7801,262.868 115.28,260.368 134,244.5C 134.591,243.517 134.257,242.85 133,242.5C 126.726,240.614 121.559,237.114 117.5,232C 129.84,236.947 142.506,237.614 155.5,234C 159.474,232.231 163.474,230.897 167.5,230C 161.932,236.735 154.932,241.235 146.5,243.5C 153.479,252.674 162.645,257.674 174,258.5C 188.821,258.973 199.987,252.973 207.5,240.5C 203.974,236.141 200.641,231.641 197.5,227C 197.833,226.833 198.167,226.667 198.5,226.5C 202.324,229.579 206.324,232.412 210.5,235C 227.067,241.839 243.067,240.839 258.5,232C 265.791,226.577 269.791,219.41 270.5,210.5 Z"/></g>
<g><path style="opacity:1" fill="#3ab6fe" d="M 222.5,254.5 C 223.199,257.573 224.199,260.573 225.5,263.5C 235.073,270.829 239.406,280.663 238.5,293C 237.799,295.38 236.633,297.547 235,299.5C 234.754,302.89 234.254,306.223 233.5,309.5C 236.941,317.604 239.608,325.937 241.5,334.5C 238.371,335.09 235.037,335.09 231.5,334.5C 221.693,334.646 214.526,338.98 210,347.5C 209.264,350.592 209.431,353.592 210.5,356.5C 210.5,356.833 210.5,357.167 210.5,357.5C 214.564,364.874 220.897,368.707 229.5,369C 237.57,370.273 245.07,368.773 252,364.5C 253.252,366.001 254.252,367.668 255,369.5C 265.131,378.48 276.964,384.147 290.5,386.5C 299.147,387.665 307.814,387.832 316.5,387C 325.136,385.066 333.469,382.232 341.5,378.5C 344.897,380.526 348.23,382.526 351.5,384.5C 306.107,417.458 256.107,426.625 201.5,412C 144.735,393.568 106.902,356.068 88,299.5C 85.2091,290.34 83.3758,281.006 82.5,271.5C 82.5,270.5 82.5,269.5 82.5,268.5C 103.39,274.101 122.89,271.101 141,259.5C 150.107,266.928 160.607,270.928 172.5,271.5C 188.957,271.447 201.29,264.447 209.5,250.5C 214.064,251.521 218.397,252.854 222.5,254.5 Z"/></g>
<g><path style="opacity:1" fill="#74854e" d="M 227.5,253.5 C 228.167,253.5 228.833,253.5 229.5,253.5C 229.523,255.927 230.023,258.26 231,260.5C 233.628,262.126 235.961,264.126 238,266.5C 241.923,274.522 244.089,283.022 244.5,292C 245.093,295.612 243.926,298.445 241,300.5C 240.744,303.557 240.244,306.557 239.5,309.5C 242.623,315.867 244.956,322.534 246.5,329.5C 246.975,332.082 246.308,334.082 244.5,335.5C 244.436,331.78 243.936,328.114 243,324.5C 241.155,319.093 239.321,313.76 237.5,308.5C 237.682,305.774 238.182,303.107 239,300.5C 240.866,298.481 242.033,296.148 242.5,293.5C 242.525,284.267 240.358,275.6 236,267.5C 233.961,265.126 231.628,263.126 229,261.5C 227.921,258.937 227.421,256.271 227.5,253.5 Z"/></g>
<g><path style="opacity:1" fill="#dbc89a" d="M 227.5,253.5 C 227.421,256.271 227.921,258.937 229,261.5C 231.628,263.126 233.961,265.126 236,267.5C 240.358,275.6 242.525,284.267 242.5,293.5C 242.033,296.148 240.866,298.481 239,300.5C 238.182,303.107 237.682,305.774 237.5,308.5C 239.321,313.76 241.155,319.093 243,324.5C 243.936,328.114 244.436,331.78 244.5,335.5C 243.609,334.89 242.609,334.557 241.5,334.5C 239.608,325.937 236.941,317.604 233.5,309.5C 234.254,306.223 234.754,302.89 235,299.5C 236.633,297.547 237.799,295.38 238.5,293C 239.406,280.663 235.073,270.829 225.5,263.5C 224.199,260.573 223.199,257.573 222.5,254.5C 224.042,253.699 225.708,253.366 227.5,253.5 Z"/></g>
<g><path style="opacity:1" fill="#d8dadb" d="M 408.5,308.5 C 417.71,310.297 426.71,313.463 435.5,318C 442.693,323.577 446.026,330.91 445.5,340C 458.092,340.865 469.759,344.532 480.5,351C 486.122,355.031 488.122,360.198 486.5,366.5C 486.179,364.952 485.179,364.285 483.5,364.5C 480.591,359.86 476.591,356.36 471.5,354C 466.107,352.291 460.774,350.624 455.5,349C 446.553,347.487 437.553,347.154 428.5,348C 419.578,352.486 419.244,351.486 427.5,345C 432.062,341.979 437.062,340.479 442.5,340.5C 442.581,336.327 441.248,332.661 438.5,329.5C 425.267,318.005 410.1,314.672 393,319.5C 382.234,301.862 366.401,293.195 345.5,293.5C 324.562,293.465 308.896,302.465 298.5,320.5C 280.664,307.68 265.164,310.013 252,327.5C 249.878,332.274 248.712,337.274 248.5,342.5C 240.479,341.112 232.479,341.279 224.5,343C 217.981,345.687 213.314,350.187 210.5,356.5C 209.431,353.592 209.264,350.592 210,347.5C 214.526,338.98 221.693,334.646 231.5,334.5C 235.037,335.09 238.371,335.09 241.5,334.5C 242.609,334.557 243.609,334.89 244.5,335.5C 246.308,334.082 246.975,332.082 246.5,329.5C 248.093,324.98 250.26,320.647 253,316.5C 267.038,303.042 281.872,302.042 297.5,313.5C 302.882,304.785 309.882,297.785 318.5,292.5C 319.492,292.672 320.158,292.338 320.5,291.5C 322.5,291.5 323.5,290.5 323.5,288.5C 324.156,289.278 324.989,289.944 326,290.5C 332.17,288.466 338.504,287.466 345,287.5C 365.557,286.408 381.39,294.408 392.5,311.5C 397.399,311.761 402.399,311.761 407.5,311.5C 407.263,310.209 407.596,309.209 408.5,308.5 Z"/></g>
<g><path style="opacity:1" fill="#e2f1fe" d="M 483.5,364.5 C 480.68,367.081 477.346,368.914 473.5,370C 460.428,373.846 447.095,375.179 433.5,374C 428.217,373.405 423.217,371.905 418.5,369.5C 423.894,368.304 428.56,365.804 432.5,362C 423.973,363.459 415.306,363.792 406.5,363C 401.799,361.773 397.632,359.606 394,356.5C 393.333,357.167 393.333,357.833 394,358.5C 397.708,362.377 401.542,366.043 405.5,369.5C 389.226,375.966 372.559,377.133 355.5,373C 352.419,371.877 349.753,370.211 347.5,368C 351.761,363.975 354.261,359.142 355,353.5C 347.637,362.414 338.137,367.58 326.5,369C 309.509,370.889 292.509,370.889 275.5,369C 266.661,367.943 258.495,365.11 251,360.5C 250.333,359.833 250.333,359.167 251,358.5C 256.849,354.668 260.183,349.335 261,342.5C 257.087,347.711 252.254,351.877 246.5,355C 234.702,358.664 222.702,359.497 210.5,357.5C 210.5,357.167 210.5,356.833 210.5,356.5C 213.314,350.187 217.981,345.687 224.5,343C 232.479,341.279 240.479,341.112 248.5,342.5C 248.712,337.274 249.878,332.274 252,327.5C 265.164,310.013 280.664,307.68 298.5,320.5C 308.896,302.465 324.562,293.465 345.5,293.5C 366.401,293.195 382.234,301.862 393,319.5C 410.1,314.672 425.267,318.005 438.5,329.5C 441.248,332.661 442.581,336.327 442.5,340.5C 437.062,340.479 432.062,341.979 427.5,345C 419.244,351.486 419.578,352.486 428.5,348C 437.553,347.154 446.553,347.487 455.5,349C 460.774,350.624 466.107,352.291 471.5,354C 476.591,356.36 480.591,359.86 483.5,364.5 Z"/></g>
<g><path style="opacity:1" fill="#dadbdc" d="M 352.5,311.5 C 363.797,310.482 372.797,314.482 379.5,323.5C 379.333,323.833 379.167,324.167 379,324.5C 367.216,316.816 354.716,315.482 341.5,320.5C 341.167,320.333 340.833,320.167 340.5,320C 344.125,316.526 348.125,313.693 352.5,311.5 Z"/></g>
<g><path style="opacity:1" fill="#b9d7f1" d="M 293.5,335.5 C 305.3,343.312 317.967,344.645 331.5,339.5C 331.833,339.833 332.167,340.167 332.5,340.5C 323.201,349.088 312.868,350.588 301.5,345C 298.223,342.234 295.557,339.067 293.5,335.5 Z"/></g>
<g><path style="opacity:1" fill="#b7d6f1" d="M 483.5,364.5 C 485.179,364.285 486.179,364.952 486.5,366.5C 484.743,371.425 481.41,374.925 476.5,377C 454.189,386.147 431.356,387.647 408,381.5C 389.469,388.221 370.636,389.221 351.5,384.5C 348.23,382.526 344.897,380.526 341.5,378.5C 333.469,382.232 325.136,385.066 316.5,387C 307.814,387.832 299.147,387.665 290.5,386.5C 276.964,384.147 265.131,378.48 255,369.5C 254.252,367.668 253.252,366.001 252,364.5C 245.07,368.773 237.57,370.273 229.5,369C 220.897,368.707 214.564,364.874 210.5,357.5C 222.702,359.497 234.702,358.664 246.5,355C 252.254,351.877 257.087,347.711 261,342.5C 260.183,349.335 256.849,354.668 251,358.5C 250.333,359.167 250.333,359.833 251,360.5C 258.495,365.11 266.661,367.943 275.5,369C 292.509,370.889 309.509,370.889 326.5,369C 338.137,367.58 347.637,362.414 355,353.5C 354.261,359.142 351.761,363.975 347.5,368C 349.753,370.211 352.419,371.877 355.5,373C 372.559,377.133 389.226,375.966 405.5,369.5C 401.542,366.043 397.708,362.377 394,358.5C 393.333,357.833 393.333,357.167 394,356.5C 397.632,359.606 401.799,361.773 406.5,363C 415.306,363.792 423.973,363.459 432.5,362C 428.56,365.804 423.894,368.304 418.5,369.5C 423.217,371.905 428.217,373.405 433.5,374C 447.095,375.179 460.428,373.846 473.5,370C 477.346,368.914 480.68,367.081 483.5,364.5 Z"/></g>
</svg>
